<svg viewBox="369.7189 362.9944 563.4052 182.5621" width="5000" height="1620.1669775145842" xmlns="http://www.w3.org/2000/svg" xmlns:xlink="http://www.w3.org/1999/xlink" preserveAspectRatio="none"><defs></defs><style>.aa3-qTy7WGmocolors-0 {fill:#FFF5D0;fill-opacity:1;}.aD6z1nYkhcolor {fill:#FFF5D0;fill-opacity:1;}.aIptOCySncolors-0 {fill:#FFF5D0;fill-opacity:1;}.aIptOCySncolors-1 {fill:#BA3521;fill-opacity:1;}.aIptOCySncolors-2 {fill:#F55139;fill-opacity:1;}.aIptOCySncolors-3 {fill:#21303A;fill-opacity:1;}.aIptOCySncolors-4 {fill:#51819E;fill-opacity:1;}.aIptOCySncolors-5 {fill:#064B75;fill-opacity:1;}.aIptOCySncolors-6 {fill:#ACA58C;fill-opacity:1;}.aIptOCySncolors-7 {fill:#3E5563;fill-opacity:1;}.ashadowPp-H0Aq3---floo {flood-color:#EBE7D9;flood-opacity:1;}.icon3-str {stroke:#F55139;stroke-opacity:1;}.text {fill:#EBE7D9;fill-opacity:1;}</style><defs>
      <filter
        x="673.7904"
        y="498.9372"
        width="242.5896"
        height="18.5996"
        id="a5gdvcmL37"
        filterUnits="userSpaceOnUse"
        primitiveUnits="userSpaceOnUse"
        color-interpolation-filters="sRGB">
        <feMerge><feMergeNode in="SourceGraphic" /></feMerge>
      </filter>
      <filter
        x="369.7189"
        y="362.9944"
        width="563.4052"
        height="182.5621"
        id="global"
        filterUnits="userSpaceOnUse"
        primitiveUnits="userSpaceOnUse"
        color-interpolation-filters="sRGB">
        <feColorMatrix
                        type="matrix"
                        values="0.3333 0.3333 0.3333 0 0 0.3333 0.3333 0.3333 0 0 0.3333 0.3333 0.3333 0 0 0 0 0 1 0"/>
      </filter></defs><g filter="url(#global)"><g opacity="1" transform="rotate(0 369.7189 362.9944)">
<svg width="182.5621" height="182.5621" x="369.7189" y="362.9944" version="1.1" preserveAspectRatio="none" viewBox="10 10 80 80">
  <g transform="matrix(1 0 0 1 0 0)" class="aIptOCySncolors-0"><path d="M50,10c-22.092,0-40,17.908-40,40s17.908,40,40,40s40-17.908,40-40S72.092,10,50,10z M67.222,63.47H32.775  c-1.635,0-2.964-1.329-2.964-2.964c0-1.031,0.549-2.003,1.432-2.538l16.385-9.941l1.102,1.816l-16.385,9.941l-0.004-0.002  l0.003,0.004c-0.255,0.154-0.407,0.423-0.407,0.719c0,0.462,0.377,0.839,0.839,0.839h34.448c0.462,0,0.839-0.377,0.839-0.839  c0-0.282-0.143-0.545-0.376-0.7c-0.026-0.013-0.051-0.028-0.076-0.042L49.434,48.739c-0.318-0.193-0.512-0.538-0.512-0.909v-3.101  c0-0.587,0.477-1.063,1.063-1.063c1.38,0,2.503-1.123,2.503-2.503c0-1.381-1.123-2.504-2.503-2.504  c-1.381,0-2.504,1.123-2.504,2.504h-2.125c0-2.552,2.076-4.629,4.629-4.629c2.551,0,4.628,2.076,4.628,4.629  c0,2.187-1.524,4.024-3.566,4.506v1.563L68.638,57.9c0.018,0.008,0.036,0.018,0.054,0.028c0.923,0.527,1.496,1.514,1.494,2.578  C70.186,62.141,68.857,63.47,67.222,63.47z"></path></g>
</svg>
</g><g opacity="1" transform="rotate(0 673.7904 498.9372)">
<svg width="242.5896" height="18.5996" x="673.7904" y="498.9372" version="1.1" preserveAspectRatio="none" viewBox="0 -29.68 490.84 37.64">
  <g transform="matrix(1 0 0 1 0 0)" class="text"><path id="id-6izo4zJp21" d="M54 0L54-28L56.96-28L56.96-2.56L72.64-2.56L72.64 0L54 0Z M90.40-21.20Q94.52-21.20 96.72-19.14Q98.92-17.08 98.92-13.04L98.92-13.04L98.92 0L96.20 0L96.20-3.28Q95.24-1.64 93.38-0.72Q91.52 0.20 88.96 0.20L88.96 0.20Q85.44 0.20 83.36-1.48Q81.28-3.16 81.28-5.92L81.28-5.92Q81.28-8.60 83.22-10.24Q85.16-11.88 89.40-11.88L89.40-11.88L96.08-11.88L96.08-13.16Q96.08-15.88 94.56-17.30Q93.04-18.72 90.12-18.72L90.12-18.72Q88.12-18.72 86.28-18.06Q84.44-17.40 83.12-16.24L83.12-16.24L81.84-18.36Q83.44-19.72 85.68-20.46Q87.92-21.20 90.40-21.20L90.40-21.20ZM89.40-2.04Q91.80-2.04 93.52-3.14Q95.24-4.24 96.08-6.32L96.08-6.32L96.08-9.76L89.48-9.76Q84.08-9.76 84.08-6L84.08-6Q84.08-4.16 85.48-3.10Q86.88-2.04 89.40-2.04L89.40-2.04Z M128.76-21.04L131.60-21.04L131.60 0L128.88 0L128.88-3.84Q127.76-1.92 125.80-0.86Q123.84 0.20 121.32 0.20L121.32 0.20Q117.20 0.20 114.82-2.10Q112.44-4.40 112.44-8.84L112.44-8.84L112.44-21.04L115.28-21.04L115.28-9.12Q115.28-5.80 116.92-4.08Q118.56-2.36 121.60-2.36L121.60-2.36Q124.92-2.36 126.84-4.38Q128.76-6.40 128.76-10L128.76-10L128.76-21.04Z M156.28-21.20Q160.24-21.20 162.58-18.90Q164.92-16.60 164.92-12.20L164.92-12.20L164.92 0L162.08 0L162.08-11.92Q162.08-15.20 160.44-16.92Q158.80-18.64 155.76-18.64L155.76-18.64Q152.36-18.64 150.38-16.62Q148.40-14.60 148.40-11.04L148.40-11.04L148.40 0L145.56 0L145.56-21.04L148.28-21.04L148.28-17.16Q149.44-19.08 151.50-20.14Q153.56-21.20 156.28-21.20L156.28-21.20Z M195.08-29.68L197.92-29.68L197.92 0L195.20 0L195.20-4.16Q193.92-2.04 191.82-0.92Q189.72 0.20 187.08 0.20L187.08 0.20Q184.12 0.20 181.72-1.16Q179.32-2.52 177.96-4.96Q176.60-7.40 176.60-10.52L176.60-10.52Q176.60-13.64 177.96-16.08Q179.32-18.52 181.72-19.86Q184.12-21.20 187.08-21.20L187.08-21.20Q189.64-21.20 191.70-20.14Q193.76-19.08 195.08-17.04L195.08-17.04L195.08-29.68ZM187.32-2.32Q189.52-2.32 191.30-3.34Q193.08-4.36 194.10-6.24Q195.12-8.12 195.12-10.52L195.12-10.52Q195.12-12.92 194.10-14.80Q193.08-16.68 191.30-17.70Q189.52-18.72 187.32-18.72L187.32-18.72Q185.08-18.72 183.30-17.70Q181.52-16.68 180.50-14.80Q179.48-12.92 179.48-10.52L179.48-10.52Q179.48-8.12 180.50-6.24Q181.52-4.36 183.30-3.34Q185.08-2.32 187.32-2.32L187.32-2.32Z M214.56-16.92Q215.56-19.04 217.54-20.12Q219.52-21.20 222.44-21.20L222.44-21.20L222.44-18.44L221.76-18.48Q218.44-18.48 216.56-16.44Q214.68-14.40 214.68-10.72L214.68-10.72L214.68 0L211.84 0L211.84-21.04L214.56-21.04L214.56-16.92Z M249.36-21.04L252.16-21.04L241.64 2.52Q240.36 5.48 238.68 6.72Q237.00 7.96 234.64 7.96L234.64 7.96Q233.12 7.96 231.80 7.48Q230.48 7 229.52 6.04L229.52 6.04L230.84 3.92Q232.44 5.52 234.68 5.52L234.68 5.52Q236.12 5.52 237.14 4.72Q238.16 3.92 239.04 2L239.04 2L239.96-0.04L230.56-21.04L233.52-21.04L241.44-3.16L249.36-21.04Z M286.96 0.24Q283.84 0.24 280.98-0.76Q278.12-1.76 276.56-3.40L276.56-3.40L277.72-5.68Q279.24-4.16 281.76-3.22Q284.28-2.28 286.96-2.28L286.96-2.28Q290.72-2.28 292.60-3.66Q294.48-5.04 294.48-7.24L294.48-7.24Q294.48-8.92 293.46-9.92Q292.44-10.92 290.96-11.46Q289.48-12 286.84-12.64L286.84-12.64Q283.68-13.44 281.80-14.18Q279.92-14.92 278.58-16.44Q277.24-17.96 277.24-20.56L277.24-20.56Q277.24-22.68 278.36-24.42Q279.48-26.16 281.80-27.20Q284.12-28.24 287.56-28.24L287.56-28.24Q289.96-28.24 292.26-27.58Q294.56-26.92 296.24-25.76L296.24-25.76L295.24-23.40Q293.48-24.56 291.48-25.14Q289.48-25.72 287.56-25.72L287.56-25.72Q283.88-25.72 282.02-24.30Q280.16-22.88 280.16-20.64L280.16-20.64Q280.16-18.96 281.18-17.94Q282.20-16.92 283.74-16.38Q285.28-15.84 287.88-15.20L287.88-15.20Q290.96-14.44 292.86-13.70Q294.76-12.96 296.08-11.46Q297.40-9.96 297.40-7.40L297.40-7.40Q297.40-5.28 296.26-3.54Q295.12-1.80 292.76-0.78Q290.40 0.24 286.96 0.24L286.96 0.24Z M319.32-3.32L320.32-1.28Q319.52-0.56 318.34-0.18Q317.16 0.20 315.88 0.20L315.88 0.20Q312.92 0.20 311.32-1.40Q309.72-3 309.72-5.92L309.72-5.92L309.72-18.64L305.96-18.64L305.96-21.04L309.72-21.04L309.72-25.64L312.56-25.64L312.56-21.04L318.96-21.04L318.96-18.64L312.56-18.64L312.56-6.08Q312.56-4.20 313.50-3.22Q314.44-2.24 316.20-2.24L316.20-2.24Q317.08-2.24 317.90-2.52Q318.72-2.80 319.32-3.32L319.32-3.32Z M347.60-21.04L350.44-21.04L350.44 0L347.72 0L347.72-3.84Q346.60-1.92 344.64-0.86Q342.68 0.20 340.16 0.20L340.16 0.20Q336.04 0.20 333.66-2.10Q331.28-4.40 331.28-8.84L331.28-8.84L331.28-21.04L334.12-21.04L334.12-9.12Q334.12-5.80 335.76-4.08Q337.40-2.36 340.44-2.36L340.44-2.36Q343.76-2.36 345.68-4.38Q347.60-6.40 347.60-10L347.60-10L347.60-21.04Z M380.76-29.68L383.60-29.68L383.60 0L380.88 0L380.88-4.16Q379.60-2.04 377.50-0.92Q375.40 0.20 372.76 0.20L372.76 0.20Q369.80 0.20 367.40-1.16Q365.00-2.52 363.64-4.96Q362.28-7.40 362.28-10.52L362.28-10.52Q362.28-13.64 363.64-16.08Q365.00-18.52 367.40-19.86Q369.80-21.20 372.76-21.20L372.76-21.20Q375.32-21.20 377.38-20.14Q379.44-19.08 380.76-17.04L380.76-17.04L380.76-29.68ZM373.00-2.32Q375.20-2.32 376.98-3.34Q378.76-4.36 379.78-6.24Q380.80-8.12 380.80-10.52L380.80-10.52Q380.80-12.92 379.78-14.80Q378.76-16.68 376.98-17.70Q375.20-18.72 373.00-18.72L373.00-18.72Q370.76-18.72 368.98-17.70Q367.20-16.68 366.18-14.80Q365.16-12.92 365.16-10.52L365.16-10.52Q365.16-8.12 366.18-6.24Q367.20-4.36 368.98-3.34Q370.76-2.32 373.00-2.32L373.00-2.32Z M397.52 0L397.52-21.04L400.36-21.04L400.36 0L397.52 0ZM398.96-25.64Q398.08-25.64 397.48-26.24Q396.88-26.84 396.88-27.68L396.88-27.68Q396.88-28.48 397.48-29.08Q398.08-29.68 398.96-29.68L398.96-29.68Q399.84-29.68 400.44-29.10Q401.04-28.52 401.04-27.72L401.04-27.72Q401.04-26.84 400.44-26.24Q399.84-25.64 398.96-25.64L398.96-25.64Z M422.88 0.20Q419.84 0.20 417.40-1.18Q414.96-2.56 413.56-5Q412.16-7.44 412.16-10.52L412.16-10.52Q412.16-13.60 413.56-16.04Q414.96-18.48 417.40-19.84Q419.84-21.20 422.88-21.20L422.88-21.20Q425.92-21.20 428.36-19.84Q430.80-18.48 432.18-16.04Q433.56-13.60 433.56-10.52L433.56-10.52Q433.56-7.44 432.18-5Q430.80-2.56 428.36-1.18Q425.92 0.20 422.88 0.20L422.88 0.20ZM422.88-2.32Q425.12-2.32 426.90-3.34Q428.68-4.36 429.68-6.24Q430.68-8.12 430.68-10.52L430.68-10.52Q430.68-12.92 429.68-14.80Q428.68-16.68 426.90-17.70Q425.12-18.72 422.88-18.72L422.88-18.72Q420.64-18.72 418.86-17.70Q417.08-16.68 416.06-14.80Q415.04-12.92 415.04-10.52L415.04-10.52Q415.04-8.12 416.06-6.24Q417.08-4.36 418.86-3.34Q420.64-2.32 422.88-2.32L422.88-2.32Z"/></g>
</svg>
</g><g opacity="1" transform="rotate(0 568 418.1187)">
<svg width="365.1241" height="72.3135" x="568" y="418.1187" version="1.1" preserveAspectRatio="none" viewBox="1.52 -34.68 176.71999999999997 35">
  <g transform="matrix(1 0 0 1 0 0)" class="aD6z1nYkhcolor"><path id="id-D6z1nYkh9" d="M8.44 0L1.52 0L1.52-34.36L15.28-34.36L15.28-27.68L8.44-27.68L8.44-22.20L14.92-22.20L14.92-15.60L8.44-15.60L8.44 0Z M26.04 0L19.36 0L22.68-34.36L34.32-34.36L37.60 0L31.08 0L30.60-5.56L26.44-5.56L26.04 0ZM28.24-28.52L26.96-11.04L30.08-11.04L28.56-28.52L28.24-28.52Z M42.48 0L42.48-34.36L51.80-34.36Q55.56-34.36 57.26-32.52Q58.96-30.68 58.96-26.52L58.96-26.52L58.96-25Q58.96-20.08 55.44-19.12L55.44-19.12Q57.60-18.56 58.48-16.52Q59.36-14.48 59.36-11.12L59.36-11.12Q59.36-5.64 57.72-2.82Q56.08 0 51.80 0L51.80 0L42.48 0ZM49.20-21.44L50.60-21.44Q51.48-21.44 51.80-22.10Q52.12-22.76 52.12-23.96L52.12-23.96L52.12-27.40Q52.12-29.08 50.64-29.08L50.64-29.08L49.20-29.08L49.20-21.44ZM49.88-6.04Q52.56-6.04 52.56-8.60L52.56-8.60L52.56-12.88Q52.56-14.44 52.10-15.24Q51.64-16.04 50.48-16.04L50.48-16.04L49.20-16.04L49.20-6.08L49.88-6.04Z M64.44 0L64.44-34.36L75-34.36Q77.52-34.36 78.90-33.22Q80.28-32.08 80.76-30.02Q81.24-27.96 81.24-24.76L81.24-24.76Q81.24-21.84 80.48-20.20Q79.72-18.56 77.84-17.92L77.84-17.92Q79.40-17.60 80.10-16.36Q80.80-15.12 80.80-13L80.80-13L80.72 0L74 0L74-13.44Q74-14.88 73.44-15.28Q72.88-15.68 71.40-15.68L71.40-15.68L71.40 0L64.44 0ZM71.44-21.64L73.08-21.64Q74.52-21.64 74.52-24.76L74.52-24.76Q74.52-26.12 74.40-26.80Q74.28-27.48 73.96-27.74Q73.64-28 73.04-28L73.04-28L71.44-28L71.44-21.64Z M92.64 0L86 0L86-34.36L92.64-34.36L92.64 0Z M106.20 0.32Q102.44 0.32 100.18-2.04Q97.92-4.40 97.92-8.52L97.92-8.52L97.92-24.36Q97.92-29.48 99.96-32.08Q102-34.68 106.36-34.68L106.36-34.68Q110.16-34.68 112.48-32.60Q114.80-30.52 114.80-26.60L114.80-26.60L114.80-20.68L107.96-20.68L107.96-25.76Q107.96-27.24 107.60-27.80Q107.24-28.36 106.36-28.36L106.36-28.36Q105.44-28.36 105.10-27.72Q104.76-27.08 104.76-25.84L104.76-25.84L104.76-8.60Q104.76-7.24 105.16-6.62Q105.56-6 106.36-6L106.36-6Q107.96-6 107.96-8.60L107.96-8.60L107.96-14.80L114.88-14.80L114.88-8.32Q114.88 0.32 106.20 0.32L106.20 0.32Z M125.72 0L119.04 0L122.36-34.36L134.00-34.36L137.28 0L130.76 0L130.28-5.56L126.12-5.56L125.72 0ZM127.92-28.52L126.64-11.04L129.76-11.04L128.24-28.52L127.92-28.52Z M142.16 0L142.16-34.36L152.72-34.36Q155.24-34.36 156.62-33.22Q158-32.08 158.48-30.02Q158.96-27.96 158.96-24.76L158.96-24.76Q158.96-21.84 158.20-20.20Q157.44-18.56 155.56-17.92L155.56-17.92Q157.12-17.60 157.82-16.36Q158.52-15.12 158.52-13L158.52-13L158.44 0L151.72 0L151.72-13.44Q151.72-14.88 151.16-15.28Q150.60-15.68 149.12-15.68L149.12-15.68L149.12 0L142.16 0ZM149.16-21.64L150.80-21.64Q152.24-21.64 152.24-24.76L152.24-24.76Q152.24-26.12 152.12-26.80Q152-27.48 151.68-27.74Q151.36-28 150.76-28L150.76-28L149.16-28L149.16-21.64Z M178.24 0L164.04 0L164.04-34.36L177.80-34.36L177.80-27.72L171.04-27.72L171.04-21.04L177.52-21.04L177.52-14.56L171.04-14.56L171.04-6.68L178.24-6.68L178.24 0Z"/></g>
</svg>
</g><g opacity="1" transform="rotate(0 898.5387 503.0492)">
<svg width="34.5854" height="10.3755" x="898.5387" y="503.0492" version="1.1" preserveAspectRatio="none" viewBox="-0.0000019073486328125 0 100 30">
  <g transform="matrix(1 0 0 1 0 0)" class="aa3-qTy7WGmocolors-0"><path d="M88,0C75.241,0,55.361,9.094,50,11.662C44.639,9.094,24.759,0,12,0C2.508,0,0,9.812,0,15s2.508,15,12,15
	c12.759,0,32.639-9.094,38-11.662C55.361,20.906,75.241,30,88,30c9.492,0,12-9.812,12-15S97.492,0,88,0z M6,15
	c0.003-0.422,0.145-9,6-9c9.094,0,23.065,5.55,30.872,9C35.065,18.45,21.094,24,12,24C6.145,24,6.003,15.422,6,15z M88,24
	c-9.094,0-23.065-5.55-30.872-9C64.935,11.55,78.906,6,88,6c5.855,0,5.997,8.578,6,9C93.997,15.422,93.855,24,88,24z"></path></g>
</svg>
</g></g></svg>